{
  "accessors": [
    {
      "bufferView": 2,
      "componentType": 5126,
      "count": 55007,
      "max": [
        8.53699016571045,
        3.214668035507202,
        8.531996726989746
      ],
      "min": [
        -8.536992073059082,
        0.018502969294786453,
        -8.531996726989746
      ],
      "type": "VEC3"
    },
    {
      "bufferView": 2,
      "byteOffset": 660084,
      "componentType": 5126,
      "count": 55007,
      "max": [
        0.9999301433563232,
        0.9999983310699463,
        0.9999332427978516
      ],
      "min": [
        -0.9999908208847046,
        -0.9999983906745911,
        -0.9999711513519287
      ],
      "type": "VEC3"
    },
    {
      "bufferView": 1,
      "componentType": 5126,
      "count": 55007,
      "max": [
        1.0,
        1.0
      ],
      "min": [
        0.0,
        0.0
      ],
      "type": "VEC2"
    },
    {
      "bufferView": 0,
      "componentType": 5125,
      "count": 329736,
      "type": "SCALAR"
    }
  ],
  "asset": {
    "extras": {
      "author": "shenmi (https://sketchfab.com/shenmi)",
      "license": "CC-BY-4.0 (http://creativecommons.org/licenses/by/4.0/)",
      "source": "https://sketchfab.com/3d-models/circle-bd8de3ce9ff8408780bab8f2358dcd1b",
      "title": "Circle"
    },
    "generator": "Sketchfab-12.66.0",
    "version": "2.0"
  },
  "bufferViews": [
    {
      "buffer": 0,
      "byteLength": 1318944,
      "name": "floatBufferViews",
      "target": 34963
    },
    {
      "buffer": 0,
      "byteLength": 440056,
      "byteOffset": 1318944,
      "byteStride": 8,
      "name": "floatBufferViews",
      "target": 34962
    },
    {
      "buffer": 0,
      "byteLength": 1320168,
      "byteOffset": 1759000,
      "byteStride": 12,
      "name": "floatBufferViews",
      "target": 34962
    }
  ],
  "buffers": [
    {
      "byteLength": 3079168,
      "uri": "scene.bin"
    }
  ],
  "materials": [
    {
      "doubleSided": true,
      "name": "anisotropic1",
      "pbrMetallicRoughness": {
        "baseColorFactor": [
          1.0,
          0.718342,
          0.303,
          1.0
        ],
        "roughnessFactor": 0.12890625
      }
    }
  ],
  "meshes": [
    {
      "name": "strangeCircle:aaaa:ZBrush_defualt_group_anisotropic1_0",
      "primitives": [
        {
          "attributes": {
            "NORMAL": 1,
            "POSITION": 0,
            "TEXCOORD_0": 2
          },
          "indices": 3,
          "material": 0,
          "mode": 4
        }
      ]
    }
  ],
  "nodes": [
    {
      "children": [
        1
      ],
      "matrix": [
        1.0,
        0.0,
        0.0,
        0.0,
        0.0,
        2.220446049250313e-16,
        -1.0,
        0.0,
        0.0,
        1.0,
        2.220446049250313e-16,
        0.0,
        0.0,
        0.0,
        0.0,
        1.0
      ],
      "name": "Sketchfab_model"
    },
    {
      "children": [
        2
      ],
      "matrix": [
        1.0,
        0.0,
        0.0,
        0.0,
        0.0,
        0.0,
        1.0,
        0.0,
        0.0,
        -1.0,
        0.0,
        0.0,
        0.0,
        0.0,
        0.0,
        1.0
      ],
      "name": "d011c5e632d74f5188b6a497ee32adac.fbx"
    },
    {
      "children": [
        3
      ],
      "name": "RootNode"
    },
    {
      "children": [
        4
      ],
      "name": "strangeCircle:aaaa:ZBrush_defualt_group"
    },
    {
      "mesh": 0,
      "name": "strangeCircle:aaaa:ZBrush_defualt_group_anisotropic1_0"
    }
  ],
  "scene": 0,
  "scenes": [
    {
      "name": "Sketchfab_Scene",
      "nodes": [
        0
      ]
    }
  ]
}
